<svg width="150" height="38" viewBox="0 0 150 38" fill="none" xmlns="http://www.w3.org/2000/svg">
<path d="M11.7759 8.85044C12.4619 9.52296 13.1008 10.2426 13.6993 11.0025C14.2912 10.2426 14.9301 9.52296 15.616 8.85044C18.7836 5.72992 22.8659 3.59801 27.392 2.92549V0H27.2978C22.0656 0.706152 17.3444 3.14069 13.6993 6.73198C10.0475 3.14069 5.3264 0.706152 0.0874283 0H0V2.92549C4.5261 3.59801 8.60833 5.72992 11.7759 8.85044ZM20.8685 23.5989H17.8421C18.9787 19.2544 21.5074 16.6921 23.5855 15.2529C25.018 14.271 26.4034 13.6926 27.392 13.3698V16.4702C25.3609 17.331 22.2673 19.3082 20.8685 23.5989ZM6.5235 23.5989H9.54986C8.41329 19.2544 5.8846 16.6921 3.80649 15.2529C2.37402 14.271 0.988613 13.6926 0 13.3698V16.4702C2.03103 17.331 5.12464 19.3082 6.5235 23.5989ZM24.9036 23.5989H27.392V20.8954C26.3361 21.2249 25.1995 22.3279 24.9036 23.5989ZM2.48834 23.5989H0V20.8954C1.05587 21.2249 2.19243 22.3279 2.48834 23.5989ZM17.6403 11.7423C16.9409 12.4686 16.2953 13.2488 15.7169 14.0827C14.9099 15.2394 14.2306 16.5038 13.6993 17.8354C13.1613 16.5038 12.4821 15.2394 11.675 14.0827C11.0967 13.2488 10.451 12.4686 9.75162 11.7423C7.15567 9.05219 3.77287 7.17585 0 6.50332V9.45571C3.28192 10.1551 6.19396 11.9373 8.34604 14.4324C9.0791 15.2731 9.72472 16.2011 10.2695 17.1965C10.8075 18.1784 11.2514 19.2275 11.5809 20.3237H15.8111C16.1406 19.2275 16.5845 18.1784 17.1225 17.1965C17.6672 16.2011 18.3129 15.2731 19.0459 14.4324C21.198 11.9373 24.11 10.1551 27.392 9.45571V6.50332C23.6191 7.17585 20.2363 9.05219 17.6403 11.7423Z" fill="white"></path>
<path d="M43.4511 36.0049H42.283V35.2033H44.2527V37.2188C44.0237 37.425 43.7488 37.5853 43.4053 37.7227C43.0617 37.8372 42.7411 37.9059 42.4204 37.9059C41.6417 37.9059 41.0233 37.6769 40.5652 37.2188C40.13 36.7607 39.901 36.1652 39.901 35.3865C39.901 34.6765 40.1071 34.081 40.5652 33.6229C41.0004 33.1419 41.5959 32.89 42.3059 32.89C42.9243 32.89 43.4511 33.0503 43.8863 33.3939L43.5198 34.0581C43.4053 33.9436 43.245 33.8519 43.0388 33.7832C42.8327 33.7145 42.6266 33.6916 42.4204 33.6916C41.9394 33.6916 41.5501 33.8519 41.2523 34.1497C40.9546 34.4474 40.7942 34.8597 40.7942 35.3865C40.7942 35.9133 40.9546 36.3256 41.2523 36.6462C41.5501 36.944 41.9394 37.1043 42.4433 37.1043C42.6266 37.1043 42.8098 37.0585 43.0159 37.0127C43.2221 36.944 43.3595 36.8524 43.4511 36.7607V36.0049Z" fill="white"></path>
<path d="M47.0241 36.0049V37.8143H46.1767V32.9587C46.4057 32.9587 46.6805 32.9587 46.9554 32.9587C47.2302 32.9587 47.4593 32.9587 47.6425 32.9587C48.8335 32.9587 49.4061 33.4626 49.4061 34.4475C49.4061 34.8139 49.3145 35.1346 49.1313 35.3636C48.9251 35.5927 48.719 35.753 48.467 35.8446L50.0016 37.8143H48.948L47.6196 36.0049H47.0241ZM47.5967 33.7603C47.5738 33.7603 47.5509 33.7603 47.5051 33.7603C47.4364 33.7603 47.3677 33.7603 47.276 33.7603C47.1844 33.7603 47.0928 33.7603 47.0241 33.7603V35.2033H47.5738C47.8486 35.2033 48.0777 35.1346 48.238 34.9972C48.4212 34.8826 48.5128 34.6994 48.5128 34.4475C48.5128 33.9894 48.2151 33.7603 47.5967 33.7603Z" fill="white"></path>
<path d="M51.811 37.8143H50.9407L53.002 32.9587H53.7349L55.7963 37.8143H54.8801L54.3762 36.5775H52.3149L51.811 37.8143ZM54.0556 35.7759L53.3456 34.0581L52.6355 35.7759H54.0556Z" fill="white"></path>
<path d="M61.5452 32.9587V37.8143H60.858L58.2012 34.4475V37.8143H57.3996V32.9587H58.0867L60.7435 36.3485V32.9587H61.5452Z" fill="white"></path>
<path d="M63.8585 37.8143H63.7668V32.9587H63.8585C64.0646 32.9587 64.2707 32.9587 64.4998 32.9587C64.9578 32.9587 65.1869 32.9358 65.1869 32.9358C66.1259 32.9358 66.836 33.1877 67.294 33.6687C67.7063 34.1268 67.9125 34.6765 67.9125 35.3407C67.9125 36.0736 67.6834 36.6691 67.1795 37.1272C66.6985 37.6082 66.0343 37.8372 65.1411 37.8372C64.9578 37.8372 64.7517 37.8372 64.5456 37.8372C64.3623 37.8143 64.1333 37.8143 63.8585 37.8143ZM65.1869 33.7374C65.0037 33.7374 64.8204 33.7603 64.6143 33.7603V37.0127C64.8204 37.0356 65.0037 37.0356 65.164 37.0356C65.7366 37.0356 66.1947 36.8753 66.5153 36.5775C66.8589 36.2798 67.0192 35.8675 67.0192 35.3407C67.0192 34.8597 66.8589 34.4704 66.5382 34.1726C66.1947 33.8978 65.7595 33.7374 65.1869 33.7374Z" fill="white"></path>
<path d="M75.173 37.8143H74.3255V35.753H72.1039V37.8143H71.2564V32.9587H72.1039V34.9513H74.3255V32.9587H75.173V37.8143Z" fill="white"></path>
<path d="M77.0282 35.3865C77.0282 34.6765 77.2573 34.1039 77.7382 33.6229C78.2192 33.1419 78.8147 32.89 79.5476 32.89C80.2806 32.89 80.8761 33.119 81.357 33.5771C81.838 34.0581 82.0671 34.6536 82.0671 35.3865C82.0671 36.1194 81.838 36.7149 81.357 37.1959C80.8761 37.654 80.2806 37.9059 79.5476 37.9059C78.8147 37.9059 78.2192 37.6769 77.7382 37.1959C77.2573 36.7378 77.0282 36.1423 77.0282 35.3865ZM77.9215 35.3865C77.9215 35.8904 78.0818 36.2798 78.3795 36.6233C78.7002 36.944 79.0896 37.1043 79.5476 37.1043C80.0515 37.1043 80.4409 36.944 80.7386 36.6233C81.0364 36.2798 81.1738 35.8904 81.1738 35.3865C81.1738 34.9055 81.0135 34.4933 80.7157 34.1726C80.3951 33.8519 80.0057 33.6916 79.5476 33.6916C79.0896 33.6916 78.7002 33.8519 78.3795 34.1726C78.0818 34.4933 77.9215 34.9055 77.9215 35.3865Z" fill="white"></path>
<path d="M84.6781 33.7603H83.1206V32.9587H87.1059V33.7603H85.5484V37.8143H84.6781V33.7603Z" fill="white"></path>
<path d="M91.5951 37.8143H88.7321V32.9587H91.5264V33.7603H89.5795V34.9743H91.3202V35.7759H89.5795V37.0127H91.5951V37.8143Z" fill="white"></path>
<path d="M96.6339 37.8143H93.5877V32.9587H94.4352V37.0127H96.6339V37.8143Z" fill="white"></path>
<path d="M42.7182 9.04704H40.6568V0.0458069H42.7411L45.5124 3.82495L48.1464 0.0458069H50.0932V9.04704H48.0319V3.29816L45.5124 6.82536H45.2147L42.7182 3.34397V9.04704Z" fill="white"></path>
<path d="M58.1325 5.22209L57.1476 2.67975L56.1169 5.22209H58.1325ZM54.6053 9.04704H52.521L56.2773 0.0458069H58.1096L61.8658 9.04704H59.667L58.9112 7.14601H55.3382L54.6053 9.04704Z" fill="white"></path>
<path d="M67.2711 1.94683C67.2482 1.94683 67.2253 1.94683 67.1566 1.94683C67.0879 1.94683 66.9734 1.94683 66.836 1.96973C66.6756 1.96973 66.5382 1.96973 66.355 1.96973V3.96237H67.1108C68.0499 3.96237 68.508 3.61881 68.508 2.90879C68.508 2.26749 68.0957 1.94683 67.2711 1.94683ZM66.355 5.8863V9.04704H64.3165V0.0458078C64.7975 0.0458078 65.3243 0.0229039 65.9198 0.0229039C66.5153 0.0229039 66.9963 0 67.3628 0C69.5844 0 70.7067 0.961963 70.7067 2.88589C70.7067 4.1227 70.2028 4.99305 69.1722 5.49693L71.8061 9.04704H69.3096L67.1337 5.8863H66.355Z" fill="white"></path>
<path d="M74.3714 9.04704H76.4327V0.0458069H74.3714V9.04704Z" fill="white"></path>
<path d="M88.0221 0.0458069V9.04704H86.373L82.1129 3.64172V9.04704H80.166V0.0458069H81.8151L86.0981 5.47403V0.0458069H88.0221Z" fill="white"></path>
<path d="M97.092 9.04704H91.618V0.0458069H96.9775V1.96973H93.6793V3.5501H96.5881V5.47403H93.6793V7.12311H97.092V9.04704Z" fill="white"></path>
<path d="M46.2912 20.1325H44.3673V18.2086H48.2151V22.2168C47.8257 22.6062 47.3219 22.9039 46.6805 23.1558C46.0392 23.3849 45.4437 23.4994 44.8482 23.4994C43.3366 23.4994 42.1456 23.0642 41.2981 22.2397C40.4507 21.3922 40.0155 20.2471 40.0155 18.827C40.0155 17.4986 40.4278 16.3992 41.2752 15.5059C42.0998 14.6127 43.2221 14.1775 44.5963 14.1775C45.7644 14.1775 46.7493 14.4982 47.528 15.1166L46.6805 16.7657C46.4973 16.5824 46.2225 16.4221 45.8789 16.3076C45.5353 16.1702 45.1918 16.1014 44.8253 16.1014C44.0466 16.1014 43.4053 16.3305 42.9243 16.8115C42.4433 17.2924 42.2143 17.9567 42.2143 18.827C42.2143 19.6745 42.4433 20.3387 42.9243 20.8196C43.4282 21.3235 44.0695 21.5526 44.8711 21.5526C45.1231 21.5526 45.375 21.5068 45.6728 21.4151C45.9705 21.3235 46.1767 21.2319 46.2912 21.1174V20.1325Z" fill="white"></path>
<path d="M55.7505 19.5141L54.7656 16.9718L53.7349 19.5141H55.7505ZM52.2233 23.3391H50.139L53.8953 14.3378H55.7276L59.4838 23.3391H57.285L56.5292 21.438H52.9562L52.2233 23.3391Z" fill="white"></path>
<path d="M64.8891 16.2389C64.8662 16.2389 64.8433 16.2389 64.7746 16.2389C64.7059 16.2389 64.5914 16.2389 64.454 16.2618C64.2936 16.2618 64.1562 16.2618 63.973 16.2618V18.2544H64.7288C65.6679 18.2544 66.1259 17.9109 66.1259 17.2237C66.1259 16.5595 65.7137 16.2389 64.8891 16.2389ZM63.973 20.1783V23.3391H61.9345V14.3378C62.4155 14.3378 62.9652 14.3149 63.5378 14.3149C64.1333 14.3149 64.6143 14.3149 64.9807 14.3149C67.2024 14.3149 68.3247 15.254 68.3247 17.1779C68.3247 18.4147 67.8208 19.2851 66.8131 19.789L69.4241 23.3391H66.9276L64.7517 20.1783H63.973Z" fill="white"></path>
<path d="M74.692 16.216C74.3484 16.216 74.0965 16.2389 73.9362 16.2618V21.4152C74.1652 21.4152 74.4171 21.4381 74.6691 21.4381C75.5852 21.4381 76.2953 21.209 76.8221 20.728C77.3259 20.2471 77.5779 19.6058 77.5779 18.7583C77.5779 17.9567 77.3259 17.3383 76.7992 16.8802C76.2724 16.445 75.5852 16.216 74.692 16.216ZM72.081 23.3391H71.8748V14.3379H72.058C72.4474 14.3379 72.8597 14.315 73.3407 14.315C73.5239 14.315 73.73 14.315 73.9362 14.315C74.1652 14.315 74.3255 14.2921 74.4401 14.2921C74.5775 14.2921 74.6691 14.2921 74.7149 14.2921C76.4098 14.2921 77.6695 14.7043 78.5169 15.5518C79.3644 16.3992 79.7767 17.4528 79.7767 18.7583C79.7767 20.0867 79.3186 21.1861 78.4253 22.0565C77.5321 22.9268 76.2724 23.362 74.6233 23.362C74.2797 23.362 73.9133 23.362 73.501 23.362C73.0887 23.3391 72.6077 23.3391 72.081 23.3391Z" fill="white"></path>
<path d="M88.2053 23.3391H82.7313V14.3378H88.0679V16.2618H84.7926V17.8421H87.7014V19.7661H84.7926V21.4151H88.2053V23.3391Z" fill="white"></path>
<path d="M99.2679 14.3378V23.3391H97.6188L93.3587 17.9337V23.3391H91.4118V14.3378H93.0609L97.344 19.7661V14.3378H99.2679Z" fill="white"></path>
<path d="M110.056 20.8655C110.056 20.499 109.598 20.0867 108.727 19.6745C108.452 19.5599 108.246 19.4454 108.04 19.3538C107.857 19.2622 107.628 19.1248 107.399 18.9415C107.17 18.7583 106.964 18.5751 106.826 18.3918C106.666 18.2086 106.551 17.9796 106.437 17.6818C106.322 17.407 106.276 17.1092 106.276 16.7657C106.276 16.0556 106.551 15.4372 107.078 14.9333C107.628 14.4295 108.315 14.1775 109.185 14.1775C110.353 14.1775 111.224 14.4982 111.842 15.1624L110.743 16.7199C110.491 16.4679 110.285 16.3305 110.101 16.2389C109.895 16.1473 109.666 16.1014 109.368 16.1014C109.094 16.1014 108.865 16.1702 108.704 16.2847C108.544 16.3992 108.475 16.5595 108.475 16.7657C108.475 17.0176 108.567 17.2237 108.75 17.3841C108.933 17.5673 109.162 17.7276 109.437 17.8421C109.735 17.9567 110.033 18.0941 110.353 18.2773C110.674 18.4376 110.972 18.6209 111.27 18.8041C111.544 19.0102 111.773 19.2851 111.957 19.6286C112.14 19.9722 112.231 20.3845 112.231 20.8426C112.231 21.6213 111.934 22.2397 111.338 22.7436C110.766 23.2475 110.033 23.4994 109.139 23.4994C108.498 23.4994 107.88 23.362 107.284 23.0871C106.689 22.8352 106.299 22.4687 106.093 22.0107L107.261 20.6135C107.49 20.9113 107.788 21.1403 108.132 21.3006C108.498 21.4839 108.842 21.5526 109.185 21.5526C109.46 21.5526 109.666 21.5068 109.827 21.3693C109.964 21.2548 110.056 21.0716 110.056 20.8655Z" fill="white"></path>
<path d="M116.744 18.827C116.744 19.6057 116.995 20.2471 117.499 20.7738C118.003 21.3006 118.599 21.5526 119.332 21.5526C120.156 21.5526 120.798 21.3006 121.256 20.7967C121.714 20.27 121.943 19.6286 121.943 18.827C121.943 18.0254 121.691 17.3612 121.187 16.8573C120.683 16.3534 120.065 16.1014 119.332 16.1014C118.576 16.1014 117.957 16.3534 117.476 16.8573C116.973 17.3612 116.744 18.0254 116.744 18.827ZM114.545 18.827C114.545 17.4986 115.003 16.3992 115.873 15.5059C116.766 14.6127 117.912 14.1775 119.332 14.1775C120.752 14.1775 121.897 14.5898 122.767 15.4601C123.683 16.3076 124.119 17.4299 124.119 18.827C124.119 20.1783 123.661 21.3006 122.767 22.171C121.851 23.0642 120.729 23.4994 119.332 23.4994C117.935 23.4994 116.789 23.0642 115.896 22.2168C115.003 21.3693 114.545 20.2471 114.545 18.827Z" fill="white"></path>
<path d="M133.303 20.9113L134.105 22.4458C133.83 22.7665 133.418 23.0184 132.868 23.2017C132.341 23.4078 131.768 23.4994 131.173 23.4994C129.776 23.4994 128.631 23.0642 127.76 22.2168C126.89 21.3464 126.432 20.2241 126.432 18.827C126.432 17.4757 126.844 16.3534 127.669 15.483C128.493 14.6127 129.661 14.1775 131.15 14.1775C131.723 14.1775 132.249 14.2691 132.73 14.4295C133.234 14.6127 133.624 14.8417 133.899 15.1166L132.982 16.6511C132.387 16.2847 131.768 16.1014 131.15 16.1014C130.417 16.1014 129.822 16.3534 129.341 16.8344C128.86 17.2924 128.631 17.9567 128.631 18.827C128.631 19.6286 128.883 20.27 129.386 20.7967C129.89 21.3006 130.555 21.5526 131.356 21.5526C132.089 21.5526 132.73 21.3464 133.303 20.9113Z" fill="white"></path>
<path d="M144.205 23.3391H142.144V19.6973H138.869V23.3391H136.807V14.3378H138.869V17.7734H142.144V14.3378H144.205V23.3391Z" fill="white"></path>
<path d="M147.939 23.3391H150V14.3378H147.939V23.3391Z" fill="white"></path>
</svg>