<svg width="238" height="60" viewBox="0 0 238 60" fill="none" xmlns="http://www.w3.org/2000/svg">
<path d="M18.6146 13.9902C19.6989 15.0533 20.7089 16.1908 21.655 17.392C22.5905 16.1908 23.6005 15.0533 24.6848 13.9902C29.6919 9.05747 36.1448 5.6875 43.2994 4.62441V0H43.1506C34.8798 1.11624 27.4169 4.9646 21.655 10.6415C15.8825 4.9646 8.41962 1.11624 0.138201 0H0V4.62441C7.15455 5.6875 13.6075 9.05747 18.6146 13.9902ZM32.9875 37.3036H28.2036C30.0002 30.4361 33.9974 26.3857 37.2823 24.1107C39.5467 22.5586 41.7367 21.6444 43.2994 21.1341V26.0349C40.0889 27.3957 35.1987 30.5211 32.9875 37.3036ZM10.3119 37.3036H15.0958C13.2992 30.4361 9.30198 26.3857 6.01705 24.1107C3.75269 22.5586 1.56273 21.6444 0 21.1341V26.0349C3.21051 27.3957 8.1007 30.5211 10.3119 37.3036ZM39.366 37.3036H43.2994V33.03C41.6304 33.5509 39.8337 35.2944 39.366 37.3036ZM3.93341 37.3036H0V33.03C1.66904 33.5509 3.46565 35.2944 3.93341 37.3036ZM27.8847 18.5614C26.7791 19.7096 25.7585 20.9427 24.8443 22.261C23.5686 24.0895 22.4949 26.0881 21.655 28.193C20.8045 26.0881 19.7308 24.0895 18.4551 22.261C17.5409 20.9427 16.5203 19.7096 15.4147 18.5614C11.3112 14.3091 5.9639 11.3431 0 10.28V14.947C5.18785 16.0526 9.791 18.8697 13.1929 22.8138C14.3516 24.1426 15.3722 25.6097 16.2333 27.183C17.0838 28.7351 17.7854 30.3936 18.3063 32.1264H24.9931C25.514 30.3936 26.2156 28.7351 27.0661 27.183C27.9272 25.6097 28.9478 24.1426 30.1065 22.8138C33.5084 18.8697 38.1115 16.0526 43.2994 14.947V10.28C37.3355 11.3431 31.9882 14.3091 27.8847 18.5614Z" fill="url(#paint0_linear_1_136)"></path>
<path d="M68.6846 56.9142H66.8381V55.647H69.9518V58.833C69.5897 59.1589 69.1553 59.4123 68.6122 59.6295C68.0691 59.8105 67.5622 59.9192 67.0554 59.9192C65.8244 59.9192 64.8469 59.5571 64.1228 58.833C63.4349 58.1089 63.0728 57.1676 63.0728 55.9366C63.0728 54.8143 63.3987 53.8729 64.1228 53.1488C64.8107 52.3885 65.752 51.9903 66.8743 51.9903C67.8519 51.9903 68.6846 52.2437 69.3725 52.7868L68.7932 53.8367C68.6122 53.6557 68.3588 53.5109 68.0329 53.4023C67.7071 53.2937 67.3812 53.2575 67.0554 53.2575C66.2951 53.2575 65.6796 53.5109 65.2089 53.9816C64.7383 54.4522 64.4848 55.1039 64.4848 55.9366C64.4848 56.7693 64.7383 57.421 65.2089 57.9279C65.6796 58.3986 66.2951 58.652 67.0916 58.652C67.3812 58.652 67.6709 58.5796 67.9967 58.5072C68.3225 58.3986 68.5398 58.2537 68.6846 58.1089V56.9142Z" fill="black"></path>
<path d="M74.3326 56.9142V59.7744H72.993V52.0989C73.355 52.0989 73.7895 52.0989 74.2239 52.0989C74.6584 52.0989 75.0205 52.0989 75.3101 52.0989C77.1927 52.0989 78.0979 52.8954 78.0979 54.4523C78.0979 55.0315 77.9531 55.5384 77.6634 55.9005C77.3376 56.2625 77.0117 56.5159 76.6135 56.6608L79.0392 59.7744H77.3738L75.2739 56.9142H74.3326ZM75.2377 53.3661C75.2015 53.3661 75.1653 53.3661 75.0929 53.3661C74.9842 53.3661 74.8756 53.3661 74.7308 53.3661C74.586 53.3661 74.4412 53.3661 74.3326 53.3661V55.647H75.2015C75.6359 55.647 75.998 55.5384 76.2514 55.3212C76.5411 55.1402 76.6859 54.8505 76.6859 54.4523C76.6859 53.7282 76.2152 53.3661 75.2377 53.3661Z" fill="black"></path>
<path d="M81.8994 59.7744H80.5236L83.782 52.0989H84.9406L88.199 59.7744H86.7508L85.9543 57.8193H82.6959L81.8994 59.7744ZM85.4475 56.5521L84.3251 53.8368L83.2028 56.5521H85.4475Z" fill="black"></path>
<path d="M97.2865 52.0989V59.7744H96.2003L92.0006 54.4523V59.7744H90.7334V52.0989H91.8195L96.0193 57.4573V52.0989H97.2865Z" fill="black"></path>
<path d="M100.943 59.7744H100.798V52.0989H100.943C101.269 52.0989 101.595 52.0989 101.957 52.0989C102.681 52.0989 103.043 52.0627 103.043 52.0627C104.527 52.0627 105.65 52.461 106.374 53.2213C107.026 53.9454 107.351 54.8143 107.351 55.8642C107.351 57.0228 106.989 57.9641 106.193 58.6882C105.433 59.4485 104.383 59.8106 102.971 59.8106C102.681 59.8106 102.355 59.8106 102.029 59.8106C101.74 59.7744 101.378 59.7744 100.943 59.7744ZM103.043 53.3299C102.753 53.3299 102.464 53.3661 102.138 53.3661V58.5072C102.464 58.5434 102.753 58.5434 103.007 58.5434C103.912 58.5434 104.636 58.2899 105.143 57.8193C105.686 57.3486 105.939 56.6969 105.939 55.8642C105.939 55.1039 105.686 54.4884 105.179 54.0178C104.636 53.5833 103.948 53.3299 103.043 53.3299Z" fill="black"></path>
<path d="M118.828 59.7744H117.489V56.5159H113.977V59.7744H112.637V52.0989H113.977V55.2488H117.489V52.0989H118.828V59.7744Z" fill="black"></path>
<path d="M121.761 55.9366C121.761 54.8143 122.123 53.9091 122.883 53.1488C123.644 52.3885 124.585 51.9903 125.744 51.9903C126.902 51.9903 127.843 52.3523 128.604 53.0764C129.364 53.8367 129.726 54.7781 129.726 55.9366C129.726 57.0952 129.364 58.0365 128.604 58.7968C127.843 59.5209 126.902 59.9192 125.744 59.9192C124.585 59.9192 123.644 59.5571 122.883 58.7968C122.123 58.0727 121.761 57.1314 121.761 55.9366ZM123.173 55.9366C123.173 56.7331 123.426 57.3486 123.897 57.8917C124.404 58.3986 125.02 58.652 125.744 58.652C126.54 58.652 127.156 58.3986 127.626 57.8917C128.097 57.3486 128.314 56.7331 128.314 55.9366C128.314 55.1763 128.061 54.5246 127.59 54.0178C127.083 53.5109 126.468 53.2575 125.744 53.2575C125.02 53.2575 124.404 53.5109 123.897 54.0178C123.426 54.5246 123.173 55.1763 123.173 55.9366Z" fill="black"></path>
<path d="M133.853 53.3661H131.392V52.0989H137.691V53.3661H135.229V59.7744H133.853V53.3661Z" fill="black"></path>
<path d="M144.787 59.7744H140.262V52.0989H144.679V53.3661H141.601V55.285H144.353V56.5521H141.601V58.5072H144.787V59.7744Z" fill="black"></path>
<path d="M152.752 59.7744H147.937V52.0989H149.277V58.5072H152.752V59.7744Z" fill="black"></path>
<path d="M67.526 14.301H64.2676V0.0724335H67.5622L71.943 6.04625L76.1066 0.0724335H79.184V14.301H75.9256V5.21354L71.943 10.7891H71.4724L67.526 5.28595V14.301Z" fill="black"></path>
<path d="M91.892 8.25475L90.3352 4.236L88.7059 8.25475H91.892ZM86.3164 14.301H83.0218L88.9594 0.0724335H91.8558L97.7934 14.301H94.3177L93.1229 11.296H87.475L86.3164 14.301Z" fill="black"></path>
<path d="M106.338 3.07742C106.302 3.07742 106.265 3.07742 106.157 3.07742C106.048 3.07742 105.867 3.07742 105.65 3.11363C105.396 3.11363 105.179 3.11363 104.89 3.11363V6.26346H106.084C107.569 6.26346 108.293 5.72038 108.293 4.59803C108.293 3.58429 107.641 3.07742 106.338 3.07742ZM104.89 9.30467V14.301H101.667V0.0724099C102.428 0.0724099 103.26 0.0362049 104.202 0.0362049C105.143 0.0362049 105.903 0 106.483 0C109.994 0 111.768 1.52061 111.768 4.56182C111.768 6.51689 110.972 7.89268 109.343 8.68919L113.506 14.301H109.56L106.121 9.30467H104.89Z" fill="black"></path>
<path d="M117.561 14.301H120.82V0.0724335H117.561V14.301Z" fill="black"></path>
<path d="M139.139 0.0724335V14.301H136.533L129.799 5.75661V14.301H126.721V0.0724335H129.328L136.098 8.65301V0.0724335H139.139Z" fill="black"></path>
<path d="M153.477 14.301H144.824V0.0724335H153.296V3.11365H148.082V5.61179H152.68V8.65301H148.082V11.2598H153.477V14.301Z" fill="black"></path>
<path d="M73.174 31.8242H70.1328V28.7829H76.2152V35.1188C75.5997 35.7343 74.8032 36.205 73.7895 36.6032C72.7758 36.9653 71.8344 37.1463 70.8931 37.1463C68.5036 37.1463 66.6209 36.4584 65.2813 35.155C63.9417 33.8154 63.2539 32.0052 63.2539 29.7605C63.2539 27.6606 63.9055 25.9228 65.2451 24.5108C66.5485 23.0988 68.3225 22.4109 70.4948 22.4109C72.3413 22.4109 73.8981 22.9177 75.1291 23.8953L73.7895 26.502C73.4999 26.2124 73.0654 25.959 72.5223 25.7779C71.9792 25.5607 71.4362 25.4521 70.8569 25.4521C69.6259 25.4521 68.6122 25.8141 67.8519 26.5744C67.0916 27.3347 66.7295 28.3847 66.7295 29.7605C66.7295 31.1001 67.0916 32.15 67.8519 32.9103C68.6484 33.7068 69.6621 34.0689 70.9293 34.0689C71.3276 34.0689 71.7258 33.9965 72.1965 33.8516C72.6671 33.7068 72.993 33.562 73.174 33.381V31.8242Z" fill="black"></path>
<path d="M88.1267 30.8466L86.5698 26.8279L84.9406 30.8466H88.1267ZM82.5511 36.8928H79.2564L85.1941 22.6643H88.0904L94.0281 36.8928H90.5524L89.3576 33.8878H83.7096L82.5511 36.8928Z" fill="black"></path>
<path d="M102.572 25.6693C102.536 25.6693 102.5 25.6693 102.391 25.6693C102.283 25.6693 102.102 25.6693 101.885 25.7055C101.631 25.7055 101.414 25.7055 101.124 25.7055V28.8554H102.319C103.803 28.8554 104.527 28.3123 104.527 27.2261C104.527 26.1762 103.876 25.6693 102.572 25.6693ZM101.124 31.8966V36.8929H97.902V22.6643C98.6623 22.6643 99.5312 22.6281 100.436 22.6281C101.378 22.6281 102.138 22.6281 102.717 22.6281C106.229 22.6281 108.003 24.1125 108.003 27.1537C108.003 29.1088 107.207 30.4846 105.614 31.2811L109.741 36.8929H105.795L102.355 31.8966H101.124Z" fill="black"></path>
<path d="M118.068 25.6331C117.525 25.6331 117.127 25.6693 116.873 25.7055V33.8517C117.235 33.8517 117.634 33.8879 118.032 33.8879C119.48 33.8879 120.602 33.5258 121.435 32.7655C122.232 32.0052 122.63 30.9915 122.63 29.6519C122.63 28.3847 122.232 27.4072 121.399 26.6831C120.566 25.9952 119.48 25.6331 118.068 25.6331ZM113.941 36.8929H113.615V22.6643H113.905C114.52 22.6643 115.172 22.6281 115.932 22.6281C116.222 22.6281 116.548 22.6281 116.873 22.6281C117.235 22.6281 117.489 22.5919 117.67 22.5919C117.887 22.5919 118.032 22.5919 118.104 22.5919C120.783 22.5919 122.775 23.2436 124.114 24.5832C125.454 25.9228 126.106 27.5882 126.106 29.6519C126.106 31.7518 125.382 33.4896 123.97 34.8654C122.558 36.2412 120.566 36.9291 117.96 36.9291C117.416 36.9291 116.837 36.9291 116.185 36.9291C115.534 36.8929 114.773 36.8929 113.941 36.8929Z" fill="black"></path>
<path d="M139.429 36.8928H130.776V22.6643H139.212V25.7055H134.035V28.2036H138.633V31.2449H134.035V33.8516H139.429V36.8928Z" fill="black"></path>
<path d="M156.916 22.6643V36.8928H154.309L147.575 28.3485V36.8928H144.498V22.6643H147.105L153.875 31.2449V22.6643H156.916Z" fill="black"></path>
<path d="M173.969 32.9827C173.969 32.4034 173.244 31.7517 171.869 31.1001C171.434 30.919 171.108 30.738 170.783 30.5932C170.493 30.4484 170.131 30.2311 169.769 29.9415C169.407 29.6519 169.081 29.3622 168.864 29.0726C168.61 28.7829 168.429 28.4209 168.248 27.9502C168.067 27.5158 167.995 27.0451 167.995 26.502C167.995 25.3797 168.429 24.4021 169.262 23.6056C170.131 22.8091 171.217 22.4109 172.593 22.4109C174.439 22.4109 175.815 22.9177 176.793 23.9677L175.055 26.4296C174.656 26.0314 174.331 25.8141 174.041 25.6693C173.715 25.5245 173.353 25.4521 172.882 25.4521C172.448 25.4521 172.086 25.5607 171.832 25.7417C171.579 25.9228 171.47 26.1762 171.47 26.502C171.47 26.9003 171.615 27.2261 171.905 27.4796C172.195 27.7692 172.557 28.0226 172.991 28.2037C173.462 28.3847 173.932 28.6019 174.439 28.8916C174.946 29.145 175.417 29.4346 175.887 29.7243C176.322 30.0501 176.684 30.4846 176.974 31.0276C177.263 31.5707 177.408 32.2224 177.408 32.9465C177.408 34.1775 176.937 35.155 175.996 35.9515C175.091 36.748 173.932 37.1463 172.52 37.1463C171.507 37.1463 170.529 36.9291 169.588 36.4946C168.646 36.0963 168.031 35.5171 167.705 34.793L169.552 32.5845C169.914 33.0551 170.384 33.4172 170.927 33.6706C171.507 33.9602 172.05 34.0689 172.593 34.0689C173.027 34.0689 173.353 33.9965 173.607 33.7792C173.824 33.5982 173.969 33.3086 173.969 32.9827Z" fill="black"></path>
<path d="M184.54 29.7605C184.54 30.9914 184.939 32.0052 185.735 32.8379C186.532 33.6706 187.473 34.0689 188.632 34.0689C189.935 34.0689 190.949 33.6706 191.673 32.8741C192.397 32.0414 192.759 31.0276 192.759 29.7605C192.759 28.4933 192.361 27.4434 191.564 26.6469C190.768 25.8503 189.79 25.4521 188.632 25.4521C187.437 25.4521 186.459 25.8503 185.699 26.6469C184.902 27.4434 184.54 28.4933 184.54 29.7605ZM181.065 29.7605C181.065 27.6606 181.789 25.9228 183.165 24.5108C184.577 23.0988 186.387 22.4109 188.632 22.4109C190.876 22.4109 192.687 23.0626 194.062 24.4384C195.511 25.7779 196.198 27.552 196.198 29.7605C196.198 31.8966 195.474 33.6706 194.062 35.0464C192.614 36.4584 190.84 37.1463 188.632 37.1463C186.423 37.1463 184.613 36.4584 183.201 35.1188C181.789 33.7792 181.065 32.0052 181.065 29.7605Z" fill="black"></path>
<path d="M210.717 33.0551L211.984 35.4809C211.549 35.9877 210.898 36.386 210.029 36.6756C209.196 37.0015 208.291 37.1463 207.35 37.1463C205.141 37.1463 203.331 36.4584 201.955 35.1188C200.579 33.743 199.855 31.969 199.855 29.7605C199.855 27.6244 200.507 25.8503 201.81 24.4746C203.114 23.0988 204.96 22.4109 207.313 22.4109C208.218 22.4109 209.051 22.5557 209.811 22.8091C210.608 23.0988 211.223 23.4608 211.658 23.8953L210.21 26.321C209.268 25.7417 208.291 25.4521 207.313 25.4521C206.155 25.4521 205.213 25.8503 204.453 26.6106C203.693 27.3347 203.331 28.3847 203.331 29.7605C203.331 31.0276 203.729 32.0414 204.526 32.8741C205.322 33.6706 206.372 34.0689 207.639 34.0689C208.798 34.0689 209.811 33.743 210.717 33.0551Z" fill="black"></path>
<path d="M227.95 36.8928H224.692V31.1362H219.514V36.8928H216.256V22.6643H219.514V28.095H224.692V22.6643H227.95V36.8928Z" fill="black"></path>
<path d="M233.852 36.8928H237.11V22.6643H233.852V36.8928Z" fill="black"></path>
<defs>
<linearGradient id="paint0_linear_1_136" x1="2.34086e-05" y1="18.6518" x2="43.2994" y2="18.6518" gradientUnits="userSpaceOnUse">
<stop stop-color="#AC6B48"></stop>
<stop offset="0.181" stop-color="#EAB380"></stop>
<stop offset="0.3148" stop-color="#CE9266"></stop>
<stop offset="0.5948" stop-color="#F6C18B"></stop>
<stop offset="0.7659" stop-color="#BB7C55"></stop>
<stop offset="0.9046" stop-color="#AA6846"></stop>
<stop offset="1" stop-color="#B77752"></stop>
</linearGradient>
</defs>
</svg>